# xmcd
#
# Track frame offsets:
#	150
#	19460
#	31964
#	52407
#	70203
#	84733
#	108398
#	121006
#	145996
#	157146
#	177784
#	195948
#	219441
#	241347
#
# Disc length: 3621 seconds
#
# Revision: 1
# Processed by: cddbd v1.5.1PL0 Copyright (c) Steve Scherf et al.
# Submitted via: audiograbber 1.83.01
#
DISCID=c70e230e
DTITLE=The Legendary Stardust Cowboy - Live in Chicago
DYEAR=1900
DGENRE=
TTITLE0=Ghost Riders In The Sky
TTITLE1=Paralyzed
TTITLE2=I Walk A Hot Wind
TTITLE3=Relaxation
TTITLE4=My Underwear Froze To Closeline
TTITLE5=I Took A Trip ( On The Space Shuttle)
TTITLE6=Peach Orchards
TTITLE7=I Ride A Tractor
TTITLE8=The Crack Of Dawn
TTITLE9=Standing In A Trashcan ( Thinking Of You)
TTITLE10=Radar
TTITLE11=Dynamite
TTITLE12=Bathroom Blues
TTITLE13=Chicago
EXTD=
EXTT0=
EXTT1=
EXTT2=
EXTT3=
EXTT4=
EXTT5=
EXTT6=
EXTT7=
EXTT8=
EXTT9=
EXTT10=
EXTT11=
EXTT12=
EXTT13=
PLAYORDER=
